<svg width="16" height="16" viewBox="0 0 16 16" fill="none" xmlns="http://www.w3.org/2000/svg">
<g id="star (5) 1" clip-path="url(#clip0_5545_5060)">
<g id="Group">
<path id="Vector" d="M8 15.125C11.935 15.125 15.125 11.935 15.125 8C15.125 4.06497 11.935 0.875 8 0.875C4.06497 0.875 0.875 4.06497 0.875 8C0.875 11.935 4.06497 15.125 8 15.125Z" fill="#FEDA2C"/>
<path id="Vector_2" d="M8.00007 13.4926C11.0335 13.4926 13.4926 11.0335 13.4926 8.00007C13.4926 4.96664 11.0335 2.50757 8.00007 2.50757C4.96664 2.50757 2.50757 4.96664 2.50757 8.00007C2.50757 11.0335 4.96664 13.4926 8.00007 13.4926Z" fill="#FCAA17"/>
<path id="Vector_3" d="M8.00001 3.77905L9.24914 6.31005L12.0421 6.71593L10.0211 8.68605L10.4983 11.4678L8.00001 10.1544L5.50176 11.4678L5.97889 8.68605L3.95776 6.71593L6.75089 6.31005L8.00001 3.77905Z" fill="#FEDA2C"/>
</g>
</g>
<defs>
<clipPath id="clip0_5545_5060">
<rect width="16" height="16" fill="white"/>
</clipPath>
</defs>
</svg>